<svg width="64" height="64" viewBox="0 0 64 64" fill="none" xmlns="http://www.w3.org/2000/svg">
<g clip-path="url(#clip0_101_11)">
<mask id="mask0_101_11" style="mask-type:luminance" maskUnits="userSpaceOnUse" x="0" y="0" width="64" height="64">
<path d="M0 0H64V64H0V0Z" fill="white"/>
</mask>
<g mask="url(#mask0_101_11)">
<path d="M13.5467 0H16.432V2.85067H19.072V0H21.9573V8.62933H19.072V5.74133H16.432V8.62933H13.5493L13.5467 0ZM25.7493 2.86133H23.2107V0H31.176V2.86133H28.6347V8.62933H25.7493V2.86133ZM32.44 0H35.448L37.2987 3.032L39.1467 0H42.1547V8.62933H39.2827V4.352L37.2987 7.42133H37.248L35.2613 4.35467V8.62933H32.44V0ZM43.5893 0H46.4773V5.77867H50.5307V8.632H43.5893V0Z" fill="#1A2139"/>
<path fill-rule="evenodd" clip-rule="evenodd" d="M13.456 58.8587L8 12.5787H56L50.5413 58.8533L31.9733 64L13.456 58.8587ZM24.488 33.5253L23.9707 27.712H45.6907L46.1973 22.0373H17.7707L19.3013 39.2027H38.9733L38.3147 46.5627L31.984 48.2747H31.9787L25.6587 46.568L25.2533 42.0427H19.552L20.3467 50.9547L31.9733 54.1813L43.6187 50.9547L45.0373 35.0507L45.176 33.528H24.488V33.5253Z" fill="#1A2139"/>
</g>
</g>
<defs>
<clipPath id="clip0_101_11">
<rect width="64" height="64" fill="white"/>
</clipPath>
</defs>
</svg>
