<svg width="64" height="64" viewBox="0 0 64 64" fill="none" xmlns="http://www.w3.org/2000/svg">
<g clip-path="url(#clip0_101_3)">
<path d="M32 14.6667C14.056 14.6667 0 22.28 0 32C0 41.72 14.056 49.3333 32 49.3333C49.944 49.3333 64 41.72 64 32C64 22.28 49.944 14.6667 32 14.6667ZM28.6773 20H32.1707L31.0613 25.3333H34.1813C36.16 25.3333 37.488 25.6107 38.2453 26.3013C38.984 26.984 39.208 28.104 38.912 29.6293L37.5253 36H33.9733L35.2507 30.1093C35.4053 29.3013 35.344 28.7387 35.072 28.4427C34.8027 28.1467 34.208 28 33.3173 28H30.52L28.832 36H25.3333L28.6773 20ZM13.3333 25.3333H20.4427C23.832 25.3333 25.8853 27.6053 25.0827 30.9947C24.1493 34.9333 21.6533 36 17.056 36H14.8587L14.1627 40H10.6293L13.3333 25.3333ZM41.3333 25.3333H48.4427C51.832 25.3333 53.8853 27.6053 53.0827 30.9947C52.1493 34.9333 49.6507 36 45.056 36H42.8587L42.1627 40H38.6293L41.3333 25.3333ZM16.36 28L15.3547 33.3333H17.6347C19.608 33.3333 21.4427 33.1093 21.7493 30.1653C21.864 29.0267 21.3893 28 19.1093 28H16.36ZM44.36 28L43.3547 33.3333H45.6347C47.608 33.3333 49.4427 33.1093 49.7493 30.1653C49.864 29.0267 49.392 28 47.1093 28H44.36Z" fill="#1A2139"/>
</g>
<defs>
<clipPath id="clip0_101_3">
<rect width="64" height="64" fill="white"/>
</clipPath>
</defs>
</svg>
