<svg width="16" height="16" viewBox="0 0 28 28" fill="none" xmlns="http://www.w3.org/2000/svg">
<path d="M7.97806 24.4355C7.86706 24.3712 7.74449 24.3294 7.61734 24.3125C7.49018 24.2955 7.36094 24.3038 7.23698 24.3368C7.11303 24.3698 6.99679 24.4269 6.8949 24.5049C6.79302 24.5828 6.70748 24.6801 6.64317 24.7911C6.57887 24.9021 6.53706 25.0246 6.52012 25.1518C6.50319 25.2789 6.51146 25.4082 6.54448 25.5321C6.57749 25.6561 6.6346 25.7723 6.71254 25.8742C6.79047 25.9761 6.88771 26.0616 6.99871 26.1259L7.97806 24.4355ZM1.87406 21C1.93569 21.1157 2.01998 21.2179 2.12192 21.3003C2.22387 21.3828 2.34136 21.4439 2.46742 21.4799C2.59347 21.516 2.72549 21.5263 2.85562 21.5103C2.98575 21.4943 3.11132 21.4522 3.22485 21.3866C3.33837 21.321 3.43753 21.2332 3.51641 21.1285C3.59529 21.0238 3.65227 20.9042 3.68396 20.777C3.71566 20.6498 3.72141 20.5175 3.70088 20.388C3.68035 20.2585 3.63396 20.1344 3.56448 20.0232L1.87406 21ZM26.0465 14C26.0465 17.1949 24.7773 20.259 22.5182 22.5182C20.259 24.7773 17.1949 26.0465 14 26.0465V28C21.7319 28 28 21.7319 28 14H26.0465ZM1.9535 14C1.9535 10.8051 3.22268 7.74099 5.48184 5.48183C7.741 3.22267 10.8051 1.95349 14 1.95349V0C6.2681 0 1.46519e-05 6.26809 1.46519e-05 14H1.9535ZM18.5581 16.9302C16.5721 16.9302 14.6674 16.1413 13.2631 14.7369C11.8587 13.3326 11.0698 11.4279 11.0698 9.44186H9.11629C9.11629 11.946 10.1111 14.3476 11.8817 16.1183C13.6524 17.8889 16.054 18.8837 18.5581 18.8837V16.9302ZM24.9721 13.3085C24.3061 14.414 23.3655 15.3285 22.2416 15.9632C21.1177 16.5978 19.8488 16.9309 18.5581 16.9302V18.8837C20.1853 18.8846 21.7851 18.4647 23.2021 17.6649C24.6192 16.8651 25.8054 15.7125 26.6456 14.3191L24.9721 13.3085ZM11.0698 9.44186C11.0692 8.15121 11.4024 6.88235 12.037 5.7585C12.6716 4.63465 13.5861 3.694 14.6915 3.02791L13.6809 1.35572C12.2876 2.19571 11.135 3.38168 10.3352 4.7985C9.53543 6.21533 9.11553 7.81487 9.11629 9.44186H11.0698ZM14 1.95349C13.8679 1.95037 13.7425 1.89513 13.651 1.79981C13.5951 1.74542 13.5577 1.67479 13.5442 1.59795C13.539 1.55758 13.5416 1.44037 13.6809 1.35572L14.6915 3.02791C15.3466 2.632 15.5576 1.9066 15.4808 1.33619C15.4 0.743628 14.9338 0 14 0V1.95349ZM26.6456 14.3191C26.5596 14.4584 26.4424 14.461 26.402 14.4558C26.3252 14.4423 26.2546 14.4049 26.2002 14.349C26.1049 14.2575 26.0496 14.1321 26.0465 14H28C28 13.0662 27.2564 12.6 26.6638 12.5192C26.0934 12.4424 25.368 12.6534 24.9721 13.3085L26.6456 14.3191ZM14 26.0465C11.8857 26.05 9.80817 25.4942 7.97806 24.4355L6.99871 26.1259C9.12642 27.357 11.5418 28.0035 14 28V26.0465ZM3.56448 20.0232C2.50557 18.1928 1.94977 16.1147 1.9535 14H1.46519e-05C-0.00354895 16.4578 0.642995 18.8728 1.87406 21L3.56448 20.0232Z" fill="white"/>
</svg>
