<svg width="64" height="64" viewBox="0 0 64 64" fill="none" xmlns="http://www.w3.org/2000/svg">
<path d="M57.8667 17.4133C57.8933 17.4667 57.8933 17.5467 57.8933 17.6267V29.0667C57.8933 29.3333 57.7333 29.6533 57.4933 29.7867L47.8667 35.3333V46.2933C47.8667 46.5867 47.7333 46.8533 47.4667 47.0133L27.4133 58.56C27.36 58.5867 27.3067 58.6667 27.2533 58.6667H26.6667C26.6667 58.6667 26.6667 58.5867 26.56 58.56L6.50667 47.0133C6.38378 46.9378 6.28243 46.8318 6.21237 46.7057C6.14231 46.5796 6.10591 46.4376 6.10667 46.2933V12C6.10667 11.8667 6.10667 11.7867 6.13334 11.7333C6.13334 11.7067 6.16 11.68 6.16 11.6533C6.16 11.6 6.18667 11.5733 6.21334 11.52C6.21334 11.4933 6.24 11.4667 6.26667 11.44L6.34667 11.36L6.42667 11.28C6.45334 11.2533 6.48 11.2267 6.50667 11.2267L16.5333 5.44C16.8 5.33333 17.12 5.33333 17.3333 5.44L27.4133 11.2267C27.44 11.2533 27.4667 11.2533 27.4933 11.28L27.5733 11.36L27.6533 11.44C27.68 11.4667 27.7067 11.4933 27.7067 11.52C27.7333 11.5733 27.76 11.6 27.76 11.6533C27.76 11.68 27.7867 11.7067 27.7867 11.7333C27.8133 11.8133 27.8133 11.8667 27.8133 12V33.3333L36.1867 28.5867V17.6267C36.1867 17.5467 36.1867 17.4667 36.2133 17.4133L36.24 17.3333C36.24 17.3333 36.2667 17.2533 36.2933 17.2C36.2933 17.1733 36.32 17.1467 36.3467 17.12L36.4267 17.04L36.5067 16.96C36.5333 16.9333 36.56 16.9067 36.5867 16.9067L46.6667 11.12C46.88 10.96 47.2 10.96 47.4667 11.12L57.4933 16.9067C57.52 16.9067 57.5467 16.9333 57.5733 16.96L57.6533 17.04L57.7333 17.12C57.76 17.1467 57.76 17.1733 57.7867 17.2C57.8133 17.2533 57.8133 17.3333 57.84 17.3333C57.8667 17.3333 57.8667 17.3333 57.8667 17.4133ZM56.24 28.5867V19.0667L47.8667 23.8667V33.3333L56.24 28.5867ZM46.2133 45.8133V36.2667L27.8133 46.7733V56.4L46.2133 45.8133ZM7.76 13.3333V45.8133L26.16 56.4V46.7733L16.56 41.3333H16.5333C16.5067 41.3333 16.48 41.3333 16.4533 41.2533C16.4267 41.2533 16.4 41.2267 16.3733 41.2L16.2933 41.12C16.2667 41.0933 16.2667 41.0667 16.24 41.04C16.2133 40.9867 16.2133 40.96 16.1867 40.9333C16.1867 40.88 16.16 40.8533 16.16 40.8267C16.1333 40.8 16.1333 40.7467 16.1333 40.72V18.1867L7.76 13.3333ZM16.96 7.14667L8.61334 12L16.96 16.7467L25.3333 12L16.96 7.14667ZM26.16 34.3467V13.3333L17.7867 18.1867V39.1733L26.16 34.3467ZM47.04 12.8L38.6667 17.6267L47.04 22.4267L55.3867 17.6267L47.04 12.8ZM46.2133 23.8667L37.84 19.0667V28.5867L46.2133 33.3333V23.8667ZM26.9867 45.3333L45.3333 34.8267L37.0133 30.0267L18.6667 40.6133L26.9867 45.3333Z" fill="#1A2139"/>
</svg>
