<svg width="64" height="64" viewBox="0 0 64 64" fill="none" xmlns="http://www.w3.org/2000/svg">
<g clip-path="url(#clip0_101_9)">
<path d="M32.0027 12.8C23.4693 12.8 18.136 17.0667 16.0027 25.6C19.2027 21.3333 22.936 19.7333 27.2027 20.8C29.6373 21.408 31.376 23.1733 33.304 25.1307C36.4427 28.3147 40.072 32 48.0027 32C56.536 32 61.8693 27.7333 64.0027 19.2C60.8027 23.4667 57.0693 25.0667 52.8027 24C50.368 23.392 48.6293 21.6267 46.7013 19.6693C43.5653 16.4853 39.936 12.8 32.0027 12.8ZM16.0027 32C7.46934 32 2.136 36.2667 0.00267029 44.8C3.20267 40.5333 6.936 38.9333 11.2027 40C13.6373 40.608 15.376 42.3733 17.304 44.3307C20.4427 47.5147 24.072 51.2 32.0027 51.2C40.536 51.2 45.8693 46.9333 48.0027 38.4C44.8027 42.6667 41.0693 44.2667 36.8027 43.2C34.368 42.592 32.6293 40.8267 30.7013 38.8693C27.5653 35.6853 23.936 32 16.0027 32Z" fill="#1A2139"/>
</g>
<defs>
<clipPath id="clip0_101_9">
<rect width="64" height="64" fill="white"/>
</clipPath>
</defs>
</svg>
