<svg width="64" height="64" viewBox="0 0 64 64" fill="none" xmlns="http://www.w3.org/2000/svg">
<path fill-rule="evenodd" clip-rule="evenodd" d="M23.112 25.112C22.2075 25.112 21.3118 25.2902 20.4761 25.6363C19.6404 25.9825 18.8811 26.4898 18.2414 27.1294C17.6018 27.7691 17.0945 28.5284 16.7483 29.3641C16.4022 30.1998 16.224 31.0955 16.224 32C16.224 32.9045 16.4022 33.8002 16.7483 34.6359C17.0945 35.4716 17.6018 36.2309 18.2414 36.8705C18.8811 37.5102 19.6404 38.0175 20.4761 38.3637C21.3118 38.7098 22.2075 38.888 23.112 38.888H30V32.1387C29.9989 32.0462 29.9989 31.9538 30 31.8613V25.112H23.112ZM30 21.112H23.112C21.2848 21.112 19.5325 20.3862 18.2405 19.0942C16.9485 17.8022 16.2227 16.0498 16.2227 14.2227C16.2227 12.3955 16.9485 10.6432 18.2405 9.35117C19.5325 8.05917 21.2848 7.33333 23.112 7.33333H30V21.112ZM34 7.33333V21.112H40.888C42.6917 21.0765 44.4095 20.3351 45.6726 19.0469C46.9356 17.7588 47.6431 16.0267 47.6431 14.2227C47.6431 12.4186 46.9356 10.6865 45.6726 9.39839C44.4095 8.11025 42.6917 7.36882 40.888 7.33333H34ZM40.888 25.1093C39.08 25.1091 37.3444 25.8198 36.0557 27.088C34.767 28.3562 34.0287 30.0802 34 31.888V32.1093C34.0221 33.4667 34.4447 34.7872 35.2149 35.9051C35.985 37.023 37.0684 37.8884 38.3288 38.3926C39.5892 38.8968 40.9704 39.0173 42.2991 38.739C43.6278 38.4608 44.8446 37.7961 45.7968 36.8284C46.7489 35.8608 47.3939 34.6334 47.6507 33.3005C47.9075 31.9675 47.7647 30.5883 47.2403 29.3362C46.7158 28.0841 45.833 27.0149 44.7029 26.2628C43.5727 25.5108 42.2455 25.1095 40.888 25.1093ZM23.112 42.888C21.749 42.8875 20.4165 43.2911 19.283 44.048C18.1495 44.8048 17.2659 45.8808 16.744 47.1399C16.222 48.3989 16.0852 49.7845 16.3507 51.1213C16.6163 52.4582 17.2724 53.6862 18.236 54.6502C19.1995 55.6141 20.4273 56.2706 21.764 56.5367C23.1008 56.8028 24.4864 56.6665 25.7457 56.1451C27.0049 55.6236 28.0813 54.7404 28.8385 53.6072C29.5958 52.474 30 51.1416 30 49.7787V42.888H23.112Z" fill="#1A2139"/>
</svg>
