<svg width="60" height="48" viewBox="0 0 60 48" fill="none" xmlns="http://www.w3.org/2000/svg">
<path d="M12.4613 0.101318C9.03733 0.101318 6.50667 3.09865 6.62133 6.34665C6.728 9.46932 6.58667 13.512 5.568 16.8107C4.54667 20.1173 2.82133 22.2133 0 22.4827V25.5173C2.82133 25.7867 4.54667 27.8827 5.568 31.1893C6.58667 34.4853 6.728 38.5307 6.61867 41.6507C6.50667 44.9013 9.03733 47.8987 12.464 47.8987H47.5413C50.9653 47.8987 53.4987 44.9013 53.3867 41.6507C53.2773 38.5307 53.4187 34.4853 54.4347 31.1893C55.4587 27.8827 57.1813 25.7867 60 25.5173V22.4827C57.1787 22.2133 55.4587 20.1173 54.4347 16.8107C53.4187 13.5147 53.2773 9.46932 53.3867 6.34665C53.4987 3.09865 50.9653 0.101318 47.5413 0.101318H12.4613ZM40.6773 29.5227C40.6773 33.9973 37.3413 36.712 31.8027 36.712H22.3733C22.2397 36.7123 22.1073 36.6863 21.9837 36.6354C21.8601 36.5845 21.7478 36.5097 21.6532 36.4154C21.5586 36.321 21.4835 36.2089 21.4323 36.0854C21.381 35.962 21.3547 35.8296 21.3547 35.696V12.304C21.3547 12.1703 21.381 12.038 21.4323 11.9146C21.4835 11.7911 21.5586 11.679 21.6532 11.5846C21.7478 11.4902 21.8601 11.4155 21.9837 11.3646C22.1073 11.3137 22.2397 11.2876 22.3733 11.288H31.7467C36.3653 11.288 39.3973 13.7893 39.3973 17.632C39.3973 20.3253 37.3573 22.7413 34.76 23.1627V23.304C38.296 23.6907 40.6773 26.1413 40.6773 29.5227ZM30.7733 14.5093H25.3973V22.104H29.9253C33.4267 22.104 35.3547 20.696 35.3547 18.176C35.3547 15.816 33.696 14.512 30.7733 14.512V14.5093ZM25.3973 25.1173V33.488H30.9707C34.616 33.488 36.544 32.024 36.544 29.2747C36.544 26.528 34.5627 25.1173 30.736 25.1173H25.3973Z" fill="#1A2139"/>
</svg>
